<?xml version="1.0" encoding="UTF-8"?>
<!DOCTYPE svg PUBLIC "-//W3C//DTD SVG 1.1//EN" "http://www.w3.org/Graphics/SVG/1.1/DTD/svg11.dtd">
<!-- Creator: CorelDRAW 2017 -->
<svg xmlns="http://www.w3.org/2000/svg" xml:space="preserve" width="75.1211mm" height="123.799mm" version="1.1" style="shape-rendering:geometricPrecision; text-rendering:geometricPrecision; image-rendering:optimizeQuality; fill-rule:evenodd; clip-rule:evenodd"
viewBox="0 0 2071.53 3413.86"
 xmlns:xlink="http://www.w3.org/1999/xlink">
 <defs>
  <style type="text/css">
   <![CDATA[
    .fil0 {fill:#2B2A29;fill-rule:nonzero}
   ]]>
  </style>
 </defs>
 <g id="Слой_x0020_1">
  <metadata id="CorelCorpID_0Corel-Layer"/>
  <path class="fil0" d="M2071.53 1750.79c0,-153.49 -10.36,-318 -20.73,-471.49 -4.53,-74.48 -25.9,-143.13 -31.09,-217.61 0,-19.71 -18.61,-115.15 -25.9,-137.95 -57.19,-293.14 -117.09,-510.06 -227.41,-775.6 -21.3,-142.8 -175.69,-177.2 -154.06,-125.28 47.92,111.4 84.84,222.15 116.58,339.37 49.78,161.29 96.64,379.87 122.4,545.97 5.18,42.1 15.54,79.01 20.73,126.94 5.18,36.92 11.01,74.48 11.01,111.4 10.36,84.84 10.36,174.86 20.72,259.71 11.01,68.65 5.83,137.95 11.01,206.6 16.19,196.24 0,402.84 -20.73,593.89 -11.01,106.22 -21.37,212.43 -37.56,318 -93.58,772.02 -437.09,923.79 -679.38,53.11 -31.73,-106.22 -58.29,-206.6 -79.66,-312.82 -37.56,-185.23 -58.29,-381.47 -69.3,-572.52 -9.57,-196.24 -17.11,-386.47 -63.47,-577.7 -5.18,-16.19 -21.37,-58.29 -37.56,-69.3 -5.18,-5.18 -42.1,-20.72 -47.28,-20.72 -98.26,-13.56 -189.21,428.15 -207.25,509.05 -21.37,100.39 -37.56,195.59 -53.11,296.62 -9.32,66.4 -26.79,223.56 -42.74,275.9 -31.74,-90.67 -42.1,-191.06 -53.11,-286.26 -10.36,-111.4 -10.36,-222.79 -15.54,-334.19 -1.64,-67.11 -4.36,-575.93 -139.89,-440.4 -2.89,2.89 -316.67,762.97 -363.33,901.53 -5.18,21.37 -16.19,74.48 31.73,68.65 233.48,-201.63 172.14,-327.21 288.85,-487.68 19.43,-20.72 34.97,-20.72 34.97,11.01 0,331.46 51.61,577.11 79.01,885.34 12.42,100.91 12.5,169.68 110.75,169.68 11.01,0 31.73,0 47.93,-5.83 92.41,-44.8 95.97,-180.9 106.21,-253.88 17.32,-124.5 40.99,-257.96 53.11,-382.11 12.65,-90.1 17.48,-177.59 31.73,-264.89 5.18,-31.73 11.01,-79.66 26.55,-106.21 21.37,58.29 16.19,121.76 21.37,180.69 10.36,68.65 16.19,137.3 21.37,206.6 15.54,137.95 31.73,281.08 58.29,418.38 26.24,175.49 96.27,373.95 154.14,540.79 25.4,77.79 86.93,205.92 132.77,270.72 36.92,53.11 100.38,126.94 159.32,164.5 568.16,353.64 708.53,-1231.64 708.53,-1612z"/>
 </g>
</svg>
