<?xml version="1.0" encoding="UTF-8"?>
<!DOCTYPE svg PUBLIC "-//W3C//DTD SVG 1.1//EN" "http://www.w3.org/Graphics/SVG/1.1/DTD/svg11.dtd">
<!-- Creator: CorelDRAW 2017 -->
<svg xmlns="http://www.w3.org/2000/svg" xml:space="preserve" width="297mm" height="420mm" version="1.1" style="shape-rendering:geometricPrecision; text-rendering:geometricPrecision; image-rendering:optimizeQuality; fill-rule:evenodd; clip-rule:evenodd"
viewBox="0 0 29700 42000"
 xmlns:xlink="http://www.w3.org/1999/xlink">
 <defs>
  <style type="text/css">
   <![CDATA[
    .fil0 {fill:#2B2A29;fill-rule:nonzero}
   ]]>
  </style>
 </defs>
 <g id="Слой_x0020_1">
  <metadata id="CorelCorpID_0Corel-Layer"/>
  <path class="fil0" d="M11973 9281.37c2.72,21.75 305.38,413.38 364.04,434.49 136.41,27.29 453.89,50.45 537.83,-117.43 -21.14,18.79 18.79,-129.17 18.79,-110.38 0,-37.58 18.79,-56.37 0,-112.73 -85.69,-322.57 -999.14,-352.51 -920.66,-93.95z"/>
  <path class="fil0" d="M26694.07 10620.08c-102.62,-307.87 -381.76,-287.5 -575.41,-93.95 -352.49,225.61 -1038.33,620.38 -1361.9,910.91 -133.87,-56.36 -56.36,-422.75 -18.78,-519.04 419.19,-1089.88 527.27,-1783.63 966.65,-3064.6 168.24,-490.49 258.2,-923.01 298.13,-1460.84 0,-535.67 420.42,-2595.38 -311.55,-2325.09 -615.33,192.58 -537.83,749.2 -634.12,1308.17 -330.35,1909.63 -6.4,3254.57 -1270.6,4518.72 -119.37,142.66 -1541.61,1291.89 -1768.5,1392.72 -1376.33,688.17 -209.28,-2076.83 96.3,-2604.6 56.36,-96.3 190.23,-230.17 230.16,-347.6 97.03,-311.68 -392.98,-283.6 -615.34,-133.87 -392.1,392.32 -669.29,768.51 -845.49,1308.18 -169.22,487.06 -300.54,1025.34 -166.45,1525.94 -346.68,60.62 -981.54,423.13 -1043.09,463.33 -133.87,96.29 -270.09,232.51 -422.75,192.58 -171.45,-37.57 -307.66,-133.87 -460.32,-230.16 -149.89,-97.29 -293.85,-239.48 -358.21,-403.08 1.13,-47.1 -8.09,-84.91 -30.09,-110.76 -14.6,-97.37 1.51,-199.95 61.84,-303.48 164.66,-261.06 875.16,-738.35 1169.61,-709.27 -37.58,136.21 -182.57,285.43 -278.86,379.37 -99.18,78.01 -281.6,281.24 -330.41,308.7 -113.39,56.7 -413.04,382.84 -225.41,416.2 328.88,46.98 1061.56,-788.37 1179.92,-1085.49 77.5,-190.23 115.08,-575.4 -115.08,-671.7 -209.03,-77.5 -575.41,133.87 -765.65,248.95 -173.79,117.44 -345.24,270.09 -519.04,422.75 -230.16,192.59 -535.48,443.89 -556.62,749.21 -12.57,191.7 52.67,388.65 148.56,555.7 -19.08,12.83 -41.78,25.67 -54.61,38.5 -1555.75,1723.88 -1387.16,2635.28 -904.21,-1326.97 39.92,-364.03 173.79,-826.71 0,-1171.95 -75.16,-192.59 -211.38,-288.88 -382.83,-115.08 -600.94,793.28 -808.07,1471.47 -1249.45,2191.25 -77.51,115.08 -117.43,211.37 -173.8,326.45 -77.51,155.01 -58.72,155.01 -155.01,18.79 -21.45,-35.75 -310.77,-433.7 -326.46,-441.54 -195.78,-94.91 -274.48,162.85 -328.8,307.67 -56.37,133.87 -96.29,288.88 -173.8,403.96 -152.66,211.38 -93.94,-37.58 -133.87,-152.66 -18.79,-136.22 -56.36,-270.09 -75.15,-385.17 -18.79,-115.08 -18.79,-345.24 -115.08,-422.75 -37.58,-39.92 -96.3,-58.71 -133.88,-39.92 -125.17,64.47 -197.37,278.99 -226.6,494.29 -102.72,256.72 -321.2,1121.68 -360.55,1257.77 -57.71,173.15 -566.56,1268.14 -772.69,930.04 -46.51,-80.34 -115.08,-379.4 -115.08,-483.81 0,-506.58 69.79,-1003.71 173.79,-1505.45 52.07,-266.83 246.7,-815.64 96.3,-1042.79 -127.7,-180.53 -537.16,-89.59 -652.91,58.72 -76.69,89.82 -114.53,196 -104.03,320.42 15.23,182 45.31,291.24 45.31,489.85 0,64.49 -42.19,623.48 -33.16,796.95 -57.81,201.65 -99.45,358.55 -100.71,363.26 -18.79,77.5 -77.51,155.01 -96.3,230.16 -34.1,140.74 -253.22,1092.39 -345.24,655.26 -39.93,-155 -39.93,-307.66 -58.72,-462.67 0,-558.67 -122.98,-1004.05 -56.36,-1653.42 18.79,-267.74 18.79,-575.41 -18.79,-826.71 -39.93,-232.51 -321.76,-829.06 -629.43,-617.68 -18.79,18.79 -77.5,77.5 -96.29,96.29 -56.37,56.37 -96.29,96.29 -152.66,173.8 -96.29,155 -192.59,310.01 -288.88,483.81 -96.29,171.45 -173.8,364.03 -251.3,556.62 -56.37,152.66 -75.16,326.46 -171.45,441.54 -68.28,-121.38 -58.71,-173.75 -58.71,-364.04 0,-103.46 -11.75,-248.37 -11.75,-366.38 0,-1208.18 1298.05,-4772.37 460.33,-4772.37 -133.87,21.14 -267.74,211.38 -305.32,328.81 -328.56,734.63 -538.4,2745.69 -596.54,3614.5 -67.29,922.02 -117.49,1847.51 -61.07,2771.36 0,173.8 0,364.03 133.87,460.33 72.35,46.81 393.2,155.32 514.35,0 34.79,-44.6 23.48,-248.96 23.48,-307.67 77.51,-552.24 472.58,-1582.66 709.28,-2076.17 294.48,-710.14 248.95,-238.29 248.95,96.29 0,397.6 102.46,2725.73 286.53,2961.6 219.89,329.78 587.76,45.82 725.72,-230.17 115.09,-232.51 192.59,-500.25 248.96,-751.55 18.94,-66.61 36.74,-133.26 53.61,-200.01 0.27,14.99 0.41,29.98 0.41,45 18.08,447.47 282.42,1251.81 749.2,1251.81 339.67,0 737.67,-805.24 869.53,-1150.98 -5.21,99.84 -5.94,200.48 13.55,279.64 226.15,726.52 683.09,-181.84 746.86,-345.24 96.29,-307.67 232.51,-634.12 406.31,-923 129.45,258.9 22.83,597.15 96.29,826.71 41.34,124 160.46,133.87 270.09,133.87 440.15,-85.89 201.87,-180.52 307.67,-556.62 96.29,-347.6 171.44,-692.84 326.45,-1019.3 133.87,-307.67 288.88,-634.12 460.33,-923 96.29,-173.8 192.58,-345.25 288.88,-537.83 58.71,-115.08 115.08,-288.88 230.16,-366.38 39.93,347.59 -115.08,655.26 -171.45,962.92 -39.92,267.75 -77.5,519.05 -117.43,768 -48.72,374.5 -454.79,3029.46 -37.58,3114.25 305.43,74.04 611.98,-160.26 730.42,-441.54 155.01,-347.59 288.88,-692.84 462.68,-1038.08 22.68,-93.59 368.09,-614.39 557.64,-1033.09 6.67,7.88 13.38,15.63 20.11,23.19 115.08,115.08 230.16,173.8 364.03,251.3 582.9,227.47 -92.54,538.39 -533.67,817.9 -308.67,195.58 -545.85,375.84 27.17,501.34 281.83,61.73 415.23,23.07 736.72,-113.51 245.7,-104.37 1088.66,-444.27 1114.55,-730.76 13.58,-150.25 -376.13,-273.17 -365.66,-305.9 0.41,-0.82 725.65,-378.5 728.33,-380.45 56.37,-39.92 133.87,-77.5 192.59,-117.43 40.46,-30.34 139.9,-71.97 221.76,-123.87 263.19,445.57 846.95,483.58 1354.15,433.89 166.21,0 423.62,-32.3 556.62,-136.22 117.43,-77.5 232.51,-133.87 347.6,-211.37 321.37,-157.44 971.49,-860.42 1134.37,-913.61 18.79,75.15 -21.13,187.89 -21.13,263.04 -7.47,358.49 -180.2,1283.09 -258.49,1587.87 -291.68,1135.46 -579.6,1970.2 -877.43,3090.41 -370.4,1393.21 -1239.78,718.81 -334.74,2125.96 614.12,954.84 1158.22,-1124.01 1281,-1522.24 106.99,-347.04 191.69,-810.31 250.14,-1160.34 140.33,-840.32 261.91,-1638.83 261.91,-2478.5 0,-965.01 2244.38,-1433.08 2183.57,-1737.1zm-17952.75 -265.39c0,-556.62 -37.58,-1153.17 -75.16,-1709.79 -16.44,-270.09 -93.94,-519.04 -112.73,-789.13 0,-71.48 -67.47,-417.56 -93.94,-500.25 -207.38,-1063.04 -424.6,-1849.67 -824.67,-2812.6 -77.23,-517.85 -637.11,-642.6 -558.66,-454.32 173.79,403.96 307.67,805.58 422.75,1230.67 180.51,584.89 350.45,1377.53 443.88,1979.88 18.79,152.66 56.37,286.53 75.16,460.33 18.79,133.87 39.93,270.09 39.93,403.96 37.57,307.66 37.57,634.12 75.15,941.79 39.93,248.95 21.14,500.25 39.93,749.2 58.71,711.63 0,1460.84 -75.16,2153.67 -39.92,385.18 -77.5,770.35 -136.22,1153.17 -339.35,2799.63 -1585.04,3349.98 -2463.69,192.59 -115.08,-385.18 -211.37,-749.21 -288.87,-1134.38 -136.22,-671.7 -211.38,-1383.33 -251.31,-2076.17 -34.7,-711.64 -62.06,-1401.47 -230.16,-2094.96 -18.79,-58.71 -77.5,-211.37 -136.22,-251.3 -18.79,-18.79 -152.66,-75.15 -171.45,-75.15 -356.32,-49.16 -686.14,1552.63 -751.55,1846 -77.5,364.04 -136.22,709.28 -192.59,1075.66 -33.78,240.78 -97.14,810.71 -155,1000.51 -115.09,-328.8 -152.66,-692.84 -192.59,-1038.08 -37.58,-403.96 -37.58,-807.92 -56.37,-1211.88 -5.93,-243.36 -15.8,-2088.51 -507.3,-1597.06 -10.47,10.47 -1148.37,2766.81 -1317.56,3269.26 -18.79,77.51 -58.72,270.09 115.08,248.96 846.67,-731.18 624.23,-1186.57 1047.48,-1768.51 70.45,-75.15 126.82,-75.15 126.82,39.93 0,1202 187.17,2092.82 286.53,3210.55 45.04,365.94 45.33,615.33 401.61,615.33 39.93,0 115.08,0 173.8,-21.14 335.1,-162.45 348.03,-656.01 385.17,-920.65 62.82,-451.48 148.66,-935.44 192.59,-1385.68 45.86,-326.75 63.39,-644.02 115.08,-960.58 18.79,-115.08 39.93,-288.88 96.29,-385.17 77.51,211.38 58.72,441.54 77.51,655.26 37.57,248.95 58.71,497.91 77.5,749.21 56.37,500.25 115.08,1019.29 211.37,1517.2 95.17,636.4 349.1,1356.08 558.97,1961.08 92.11,282.1 315.25,746.73 481.47,981.72 133.87,192.59 364.03,460.33 577.75,596.55 2060.35,1282.44 2569.38,-4466.37 2569.38,-5845.68z"/>
 </g>
</svg>
